# xmcd
#
# Track frame offsets:
#	150
#	19462
#	32483
#	52377
#	62327
#	78872
#	95454
#	114716
#	130237
#	147897
#	162738
#	177538
#	193372
#	216968
#	232602
#	256913
#	269228
#	286401
#	301914
#	318194
#
# Disc length: 4609 seconds
#
# Revision: 1
# Processed by: cddbd v1.5.1PL0 Copyright (c) Steve Scherf et al.
# Submitted via: audiograbber 1.83.01
#
DISCID=2d11ff14
DTITLE=Various Artist - Эхо войны. (2003)
DYEAR=1900
DGENRE=
TTITLE0=Михаил Долгополов. - Эхо войны.
TTITLE1=Светлана Николаева. - Марш призывников.
TTITLE2=Олег Горсткин. - Русский.
TTITLE3=Андрей Кочелягин. - Гвардии ефрейтор ВДВ.
TTITLE4=Иван Герасимов. - Дома матери ждут.
TTITLE5=Светлана Николаева. - Баллада.
TTITLE6=Вадим Рубинчук. - Офицерская жена.
TTITLE7=Александр Борзенко. - Ангелы смерти.
TTITLE8=Арсенал. - Сон.
TTITLE9=Дмитрий Кузнецов. - Горячие точки.
TTITLE10=Евгений бунтов. - Русский дождик.
TTITLE11=Перевал. - Рота, подъем!
TTITLE12=Парадокс. - Снова ночь.
TTITLE13=Светлана Николаева. - Разговор с сыном.
TTITLE14=Эпизод. - Третий тост.
TTITLE15=Михаил Долгополов. - Пробуждение.
TTITLE16=Парадокс. - Домой.
TTITLE17=Эпизод. - Что ты знаешь о прошлой войне.
TTITLE18=Иван Герасимов. - Сны.
TTITLE19=Виа Виктория. - Когда же кончится война.
EXTD=
EXTT0=
EXTT1=
EXTT2=
EXTT3=
EXTT4=
EXTT5=
EXTT6=
EXTT7=
EXTT8=
EXTT9=
EXTT10=
EXTT11=
EXTT12=
EXTT13=
EXTT14=
EXTT15=
EXTT16=
EXTT17=
EXTT18=
EXTT19=
PLAYORDER=
